<svg id="Layer_1" data-name="Layer 1" xmlns="http://www.w3.org/2000/svg" viewBox="0 0 22.38 25.83"><defs><style>.cls-1,.cls-3,.cls-4{fill:none;stroke:#231f20;}.cls-1{stroke-linecap:round;}.cls-1,.cls-4{stroke-width:0.5px;}.cls-2{fill:#fff;}.cls-3{stroke-width:0.44px;}.cls-5{fill:#231f20;}</style></defs><title>Pfadi</title><path class="cls-1" d="M15.47,18.09c1.11.43,1.16,2.4,1.21,3.22a8.46,8.46,0,0,1-.55,2.74,2.31,2.31,0,0,0-.15,1c0,.46.43.76.18,1.27" transform="translate(-0.81 -0.76)"/><path class="cls-1" d="M15.07,26c.31-.27.57-.63.87-.93" transform="translate(-0.81 -0.76)"/><path class="cls-1" d="M16,25.2c.28.29,1,.63.73,1.14" transform="translate(-0.81 -0.76)"/><path class="cls-1" d="M16,25.1a1.47,1.47,0,0,1,1.19.33" transform="translate(-0.81 -0.76)"/><path class="cls-1" d="M10,18.13c-2.09-.39-2.43,1.81-2.47,2.63a8.45,8.45,0,0,0,.54,2.74,2.31,2.31,0,0,1,.15,1c0,.46-.43.76-.18,1.27" transform="translate(-0.81 -0.76)"/><path class="cls-1" d="M9.12,25.4c-.31-.27-.57-.63-.86-.93" transform="translate(-0.81 -0.76)"/><path class="cls-1" d="M8.17,24.65c-.28.29-1,.63-.72,1.14" transform="translate(-0.81 -0.76)"/><path class="cls-1" d="M8.18,24.55a1.48,1.48,0,0,0-1.2.33" transform="translate(-0.81 -0.76)"/><polygon class="cls-2" points="16.74 17.42 5.49 17.42 7.69 7.94 14.75 7.89 16.74 17.42"/><polygon class="cls-3" points="16.74 17.42 5.49 17.42 7.69 7.94 14.75 7.89 16.74 17.42"/><path class="cls-2" d="M16.55,5.66A4.65,4.65,0,1,1,11.9,1a4.65,4.65,0,0,1,4.65,4.65" transform="translate(-0.81 -0.76)"/><path class="cls-4" d="M16.55,5.66A4.65,4.65,0,1,1,11.9,1,4.65,4.65,0,0,1,16.55,5.66Z" transform="translate(-0.81 -0.76)"/><path class="cls-4" d="M15.36,7a3.89,3.89,0,0,1-6.92-.09" transform="translate(-0.81 -0.76)"/><path class="cls-5" d="M10.54,6.11a.65.65,0,1,1-.65-.65.65.65,0,0,1,.65.65" transform="translate(-0.81 -0.76)"/><path class="cls-5" d="M14.19,6.11a.65.65,0,1,1-.64-.65.64.64,0,0,1,.64.65" transform="translate(-0.81 -0.76)"/><path class="cls-1" d="M8.49,9.07a5.71,5.71,0,0,0,3,4.48c.54.27.93.26,1.19.78a3.71,3.71,0,0,1,.15.64,4.13,4.13,0,0,0,.39.88" transform="translate(-0.81 -0.76)"/><path class="cls-1" d="M15.47,8.94a5.72,5.72,0,0,1-3,4.47c-.53.27-.92.26-1.18.78a1.93,1.93,0,0,0-.15.65c0,.24,0,.47,0,.68" transform="translate(-0.81 -0.76)"/><path class="cls-5" d="M12.48,13.83a.5.5,0,0,1-.53.47.5.5,0,0,1-.53-.47V13.5A.5.5,0,0,1,12,13a.5.5,0,0,1,.53.47Z" transform="translate(-0.81 -0.76)"/><path class="cls-1" d="M8,11.45c.16,1.37-2.76.35-3.36-.21A8.24,8.24,0,0,1,3.1,8.91a2.22,2.22,0,0,0-.62-.84c-.33-.32-.83-.24-1-.78" transform="translate(-0.81 -0.76)"/><path class="cls-1" d="M2.52,6.8c0,.41,0,.86,0,1.28" transform="translate(-0.81 -0.76)"/><path class="cls-1" d="M2.37,8C2,8,1.22,8.24,1.06,7.7" transform="translate(-0.81 -0.76)"/><path class="cls-1" d="M2.44,8.08a1.52,1.52,0,0,1-1.08.6" transform="translate(-0.81 -0.76)"/><path class="cls-1" d="M16,11.59c-.16,1.37,2.76.35,3.37-.2a8.63,8.63,0,0,0,1.52-2.34,2.45,2.45,0,0,1,.62-.84c.33-.32.83-.24,1-.78" transform="translate(-0.81 -0.76)"/><path class="cls-1" d="M21.47,6.94c0,.41,0,.86,0,1.28" transform="translate(-0.81 -0.76)"/><path class="cls-1" d="M21.63,8.14c.4,0,1.14.25,1.31-.3" transform="translate(-0.81 -0.76)"/><path class="cls-1" d="M21.55,8.22a1.48,1.48,0,0,0,1.09.6" transform="translate(-0.81 -0.76)"/></svg>